PathFileType	4	(X/Y/Z)	Patient4_TMGait_0pt4_01_left_16.trc.trc
DataRate	CameraRate	NumFrames	NumMarkers	Units	OrigDataRate	OrigDataStartFrame	OrigNumFrames
93.959731543624	93.959731543624	4	33	mm	93.959731543624	89	       141
Frame#	Time	Sacral			L.Shoulder			Chest			R.Shoulder			Neck			R.ASIS			L.ASIS			R.Thigh.Superior			R.Thigh.Lateral			R.Thigh.Inferior			R.Patella			L.Thigh.Superior			L.Thigh.Lateral			L.Thigh.Inferior			L.Patella			L.Shank.Superior			L.Shank.Lateral			L.Shank.Inferior			R.Shank.Superior			R.Shank.Lateral			R.Shank.Inferior			R.Heel			R.Midfoot.Superior			R.Midfoot.Lateral			R.Toe			L.Heel			L.Midfoot.Lateral			L.Midfoot.Superior			L.Toe			L.Elbow			L.Wrist			R.Elbow			R.Wrist			
		X1	Y1	Z1	X2	Y2	Z2	X3	Y3	Z3	X4	Y4	Z4	X5	Y5	Z5	X6	Y6	Z6	X7	Y7	Z7	X8	Y8	Z8	X9	Y9	Z9	X10	Y10	Z10	X11	Y11	Z11	X12	Y12	Z12	X13	Y13	Z13	X14	Y14	Z14	X15	Y15	Z15	X16	Y16	Z16	X17	Y17	Z17	X18	Y18	Z18	X19	Y19	Z19	X20	Y20	Z20	X21	Y21	Z21	X22	Y22	Z22	X23	Y23	Z23	X24	Y24	Z24	X25	Y25	Z25	X26	Y26	Z26	X27	Y27	Z27	X28	Y28	Z28	X29	Y29	Z29	X30	Y30	Z30	X31	Y31	Z31	X32	Y32	Z32	X33	Y33	Z33	

89	20.936571428571	723.549282787030	1004.875901176693	390.300103314900	926.174342443351	1426.574171799654	213.203145383558	1019.487253752721	1359.146667348695	379.908244162031	929.456460623573	1438.036298289346	548.983593602660	903.981786507019	1491.211097427374	377.353788051204	946.018174119256	938.369307621720	519.004354180340	943.929342192719	958.210365690714	244.663912690331	1007.326633842546	750.220431293975	492.211683147768	944.973661388834	632.308501694007	556.644916625261	1030.542439117199	590.890216923463	476.400475574661	1049.628996848692	504.838270768375	486.626320195995	955.909804256057	732.616662269190	269.600545580156	849.431401469540	633.338939565563	200.532790066370	916.718569184674	542.479521786516	262.773600283566	904.817650434098	473.189149765214	267.396841416302	869.279576600675	406.443586122719	257.936341703590	763.055567002047	305.573836152502	208.302170482746	803.346043327195	186.672900516607	273.628881236676	1027.122106362803	414.629256002450	497.780220689253	964.728853592523	306.919699193812	563.131339793185	1020.054599944542	214.567571814957	506.221067053358	905.920466409129	40.796114835460	483.564520092079	1076.145039545176	101.296151443281	514.752098922887	992.076746846606	36.194971063542	554.941847275300	1197.740119363160	54.315018114780	537.366567916219	665.770906611763	37.536411060077	322.299337037476	731.655124613912	34.045153319632	234.960412244754	818.138135359602	94.636330817491	254.865584470497	943.237628639725	41.310472914121	213.909953544035	932.681994648299	1100.312673106958	47.801320899081	1149.809138477887	962.836039432833	11.334522978364	824.934626902653	1108.862964606795	668.340247402713	858.395313850067	850.109754243459	684.267287764049	
90	20.947214285714	724.820945789429	1003.855677699181	392.746136750465	925.526954648598	1426.555274313905	216.491453780652	1019.696931535832	1359.045504266871	382.738364087750	929.795865392386	1436.963602177283	552.399539530790	903.847842292482	1490.637994131226	380.905277605793	947.714370813972	937.554577912180	520.886369271146	945.157767394451	957.784106437498	246.760412337471	1008.245968477131	748.167637072276	494.145623220899	943.709808684521	631.100871575421	557.451407501816	1029.035128591398	589.209423417669	477.266029127094	1046.283900027865	503.182788640179	486.677532918735	958.260791877468	731.875131972948	271.339532385800	852.034216415520	632.201577752128	202.298267130162	919.978021506968	541.338163632122	264.214524470509	908.503353007984	471.086516040290	268.162753650363	871.041434149373	404.808317057284	258.898453020554	762.698776216577	306.016447239447	209.409211032030	801.060232059548	186.126922912365	273.969026633412	1024.381717044957	412.860035384725	497.915447736141	962.039945225607	305.131636890464	563.220504964040	1016.727457901279	212.810191443579	505.679382170521	901.641176623025	40.482549487746	483.054113251083	1072.320817488057	99.699016400881	513.881989086332	987.666885790360	35.889714264718	554.595995915164	1193.642321691026	51.815743299840	536.665166911122	661.566991833967	38.167900493750	322.155571207881	727.546018055715	34.288751906839	234.990321471678	814.283327772938	94.673649379820	254.841534343670	939.127060217894	40.960667079016	213.811169966793	932.359051932474	1099.627069796836	51.765332841121	1147.189862483839	957.607447022206	17.178029620897	829.011203812594	1106.124777880260	670.859737177035	866.893230600169	847.813431097794	685.339136462108	
91	20.957857142857	725.983583609520	1003.011236180393	395.302998353839	924.885643201649	1426.624494060670	219.796364920707	1019.934537919410	1359.020446057745	385.572015841827	930.268919092781	1436.032671773840	555.822787071479	903.781651320895	1490.192987441901	384.470585526172	949.327723457489	936.995359309949	522.882102801671	946.207741057392	957.447173055866	248.960347589445	1009.390052594068	746.699700794442	496.002767945259	943.066238554124	630.388833563256	558.332479341231	1028.094355297058	588.078553936054	478.186343641094	1043.663455074331	501.938390785870	486.911736525973	960.868186969632	731.299756932758	273.168612541449	855.064787110362	631.050781055894	204.175548145200	923.985561166563	540.265554170946	265.624142971323	913.066453644319	468.973211458488	268.825871211704	873.492810183585	403.206720072156	259.823994967913	762.886725521332	306.734300720847	210.571237089363	799.143459601157	185.802834285565	274.277396357696	1022.148449747008	411.478862404421	498.136036816555	959.782334330314	303.861171424614	563.560891236888	1013.427782507410	211.428017866516	505.271480736621	896.987206245670	40.491284702126	482.728706712930	1068.120546850227	98.550428279307	513.282572590436	982.911064609005	35.837311945587	554.405126050584	1189.190622505269	49.769759820486	536.171577043876	657.484576713781	39.362586191572	321.969158662815	723.544861438758	34.839033190661	235.009023630305	810.671140833849	94.808138624594	254.742598369419	935.073200315511	40.544249146263	213.685682731296	931.839790479571	1098.852522456931	56.037102265639	1144.025695444461	952.008064891358	23.040609044022	833.518726731780	1103.490667294484	673.443008349577	876.036492114697	845.730688160376	686.382789232187	
92	20.968500000000	727.013160776656	1002.367193090744	397.954092268594	924.293220758356	1426.792395391038	223.085447240157	1020.200670376236	1359.057554597011	388.386890138968	930.881394334470	1435.266397565816	559.210468518012	903.790785956953	1489.894323978004	388.010429147031	950.827070268272	936.704430799103	524.991514136906	947.035456845712	957.215499283007	251.237533195895	1010.651902182569	745.791316228787	497.784904732819	942.982421768718	630.119447905944	559.355482816451	1027.626977195296	587.420565145233	479.207165787015	1041.697653009395	501.071565967107	487.404158113301	963.658133040503	730.955709762684	275.068077013652	858.501078914226	629.945355563953	206.113388106106	928.738911395449	539.336144936113	266.930892725241	918.484162424733	466.942211389480	269.322169485737	876.658599565443	401.715986392146	260.650549441797	763.667679643863	307.803082478288	211.728486476863	797.656513331605	185.794877779797	274.509791638221	1020.371328819799	410.457533230944	498.498254937680	957.942569259280	303.038073126940	564.170404569385	1010.245135998226	210.392924654618	505.037551391069	892.199563939510	40.687801116871	482.588563609446	1063.742987859752	97.805878015923	512.959747237615	978.054471999245	35.934893585713	554.363108578661	1184.606957476907	48.207726316680	535.893122215080	653.574750230363	41.299555429400	321.730899129142	719.678636104664	35.807879446082	235.001683392447	807.360962647721	95.077697946840	254.543659837535	931.076879213148	40.058923551074	213.538309735220	931.116913450150	1098.011972122315	60.608834415097	1140.269899883936	946.064590695629	28.910567250143	838.424123853186	1101.010855900819	676.072492873140	885.802323382384	843.936983025866	687.398884912104	
